<?xml version="1.0" encoding="utf-8"?>
<!-- Generator: Adobe Illustrator 27.0.0, SVG Export Plug-In . SVG Version: 6.00 Build 0)  -->
<svg version="1.1" id="Calque_1" xmlns="http://www.w3.org/2000/svg" xmlns:xlink="http://www.w3.org/1999/xlink" x="0px" y="0px"
	 viewBox="0 0 512 512" style="enable-background:new 0 0 512 512;" xml:space="preserve">
<style type="text/css">
	.st0{fill:#EBEBEB;}
	.st1{fill:#FFFFFF;}
</style>
<path class="st0" d="M256.5,210h-75l-5-58h80V96h-1h-141l1,15l14,156h127V210z M256.5,357h-1l-63-17l-4-45h-30h-26l7,89l116,32h1
	V357z"/>
<path class="st1" d="M255.5,210v57h70l-7,73l-63,17v59l116-32l1-10l13-149l2-15h-16H255.5z M255.5,96v35v21l0,0h137l0,0l0,0l1-12
	l3-29l1-15H255.5z"/>
</svg>
