<?xml version="1.0" encoding="UTF-8"?>
<svg id="Calque_2" data-name="Calque 2" xmlns="http://www.w3.org/2000/svg" viewBox="0 0 64.24 79.1">
  <defs>
    <style>
      .cls-1 {
        fill: #fff;
      }

      .cls-2 {
        fill: #1d1d1b;
      }
    </style>
  </defs>
  <g id="Final">
    <path class="cls-2" d="m43.86,0h-23.48c-1.33,0-2.49.91-2.8,2.21L.08,75.56c-.43,1.81.94,3.54,2.8,3.54h9.66c1.34,0,2.51-.93,2.8-2.24l2.83-12.47c.3-1.31,1.46-2.24,2.8-2.24h22.3c1.34,0,2.51.93,2.8,2.24l2.83,12.47c.3,1.31,1.46,2.24,2.8,2.24h9.66c1.86,0,3.23-1.74,2.8-3.54L46.66,2.21c-.31-1.29-1.47-2.21-2.8-2.21Zm-22.02,47.91L31.1,7.46h2.03l9.15,40.45h-20.45Z"/>
    <path class="cls-1" d="m21.54,1.54h6.04c1.47,0,2.56,1.35,2.24,2.79l-9.37,42.8c-.31,1.43.78,2.79,2.24,2.79h18.2c1.08,0,2.01.75,2.24,1.8l1.25,5.65c.32,1.43-.77,2.79-2.24,2.79H8.9c-1.48,0-2.57-1.38-2.24-2.82L19.3,3.31c.24-1.04,1.17-1.77,2.24-1.77Z"/>
  </g>
</svg>