<?xml version="1.0" encoding="UTF-8"?>
<svg id="Calque_2" data-name="Calque 2" xmlns="http://www.w3.org/2000/svg" xmlns:xlink="http://www.w3.org/1999/xlink" viewBox="0 0 349.92 227.04">
  <defs>
    <style>
      .cls-1 {
        fill: #249938;
      }

      .cls-1, .cls-2, .cls-3, .cls-4, .cls-5, .cls-6 {
        stroke: #1d1d1b;
        stroke-miterlimit: 10;
      }

      .cls-2 {
        fill: #f6c02e;
        filter: url(#drop-shadow-2);
      }

      .cls-2, .cls-3, .cls-6 {
        stroke-width: 2px;
      }

      .cls-3 {
        fill: #f3a918;
        filter: url(#drop-shadow-1);
      }

      .cls-4 {
        fill: #c41718;
      }

      .cls-5 {
        fill: #fff;
      }

      .cls-6 {
        fill: #bb8012;
        filter: url(#drop-shadow-3);
      }
    </style>
    <filter id="drop-shadow-1" filterUnits="userSpaceOnUse">
      <feOffset dx="7" dy="7"/>
      <feGaussianBlur result="blur" stdDeviation="5"/>
      <feFlood flood-color="#1d1d1b" flood-opacity=".75"/>
      <feComposite in2="blur" operator="in"/>
      <feComposite in="SourceGraphic"/>
    </filter>
    <filter id="drop-shadow-2" filterUnits="userSpaceOnUse">
      <feOffset dx="7" dy="7"/>
      <feGaussianBlur result="blur-2" stdDeviation="5"/>
      <feFlood flood-color="#1d1d1b" flood-opacity=".75"/>
      <feComposite in2="blur-2" operator="in"/>
      <feComposite in="SourceGraphic"/>
    </filter>
    <filter id="drop-shadow-3" filterUnits="userSpaceOnUse">
      <feOffset dx="7" dy="7"/>
      <feGaussianBlur result="blur-3" stdDeviation="5"/>
      <feFlood flood-color="#1d1d1b" flood-opacity=".75"/>
      <feComposite in2="blur-3" operator="in"/>
      <feComposite in="SourceGraphic"/>
    </filter>
  </defs>
  <g id="Sombrero">
    <path class="cls-3" d="m168.83,26.19s-17.06-27.21-52.89-13.15c0,0-29.04,7.95-25.38,126.57,0,0,87.75-30.57,122.6-53.2,0,0-12.84-13.45-44.33-60.23Z"/>
    <path class="cls-2" d="m261.62,77.86c-32.67,4.47-48.46,8.56-48.46,8.56,0,0-19.41,16.89-123.36,53.2-17.51,6.11-80.56,14.98-80.56,14.98,3.55,29.78,59.85,30.51,71.78,30.32,1.4-.02,2.8-.19,4.17-.5,130.89-29.76,163.13-53.82,163.13-53.82,60.08-35.31,77.59-10.2,77.59-10.2,9.55-60.31-64.29-42.54-64.29-42.54Z"/>
    <path class="cls-6" d="m326.13,118.77c-26.14-18.57-72.84,8.99-72.84,8.99-67.57,38.84-170.3,56.95-170.3,56.95,105.94,43.11,181.83,0,181.83,0,66.04-45.4,61.31-65.94,61.31-65.94Z"/>
  </g>
  <g id="EL">
    <path class="cls-1" d="m125.86,31.13c1.28-2.09,6.1.04,10.15-1.15,2.49-.73,5.53-.97,6.91-1.95,9.4-6.65-1.19-8.64-1.19-8.64-1.17,1.15-10.04,2.6-10.04,2.6-4.27.52-9.32-1.15-13.61-2.6-4.76-1.62-7.95,4.51-7.95,4.51-6.05,13.38-1.99,10.85-1.99,10.85,2.75-6.88,3.82,0,3.82,0-14.23,21.79-16.14,76.89-16.4,93.49-.04,2.35,2.28,4.03,4.5,3.26,28.21-9.64,41.91-15.59,41.91-15.59,0,0,4.22-10.23-.97-11.46,0,0-4.59,7.49-22.32,7.64,0,0-5.81.15-1.53-27.36,0,0,.15-6.27,1.99-11.46,0,0,4.99.19,10.14,1.41,0,0,15.2,1.72,11.99-13.87,0,0-2.98-7.8-9.75-.11-1.32,1.5-8.66,3.84-11.75.97,0,0-4.53-2.75,3.84-25.74,0,0,1.19-3.11,2.24-4.82Z"/>
    <path class="cls-4" d="m198.95,75.39s-27.56,10.64-32.88,10.83c0,0,1.83-6.73-3.67-44.1,0,0-.84-3.82,1.1-6.11,0,0,7.74-8.41-3.87-9.4,0,0-10.05,2.15-10.55,2.38-.98.45-2.68-.33-9.06,3.17,0,0-2.69.95-7.89,5,0,0-.99,10.55,6.07,4.31,0,0,4.01-4.27,8.6-3.8,0,0,10.12-6.08,2.61,73.23-.13,1.38,1.34,2.35,2.56,1.68,8.44-4.71,33.56-18.29,49.95-22.62,0,0,3.52-10.09-2.98-14.55Z"/>
  </g>
  <g id="HOMBRE">
    <path class="cls-1" d="m93.84,141.44c-1.73-.02-4.78.45-5.81,1.88-3.02,4.2-3.54,19.88-3.74,20.96,0,.03-.04.04-.06.02-.47-.58-4.64-5.3-14.78-5.71-.09,0-.17-.07-.18-.17-.05-.7-.34-3.58-1.67-6.11,0,0-5.55-8.32-16.28.07-.13.1-.22.24-.26.4-.19.88-.74,3.94.44,5.26.38.43,2.62,1.12,3.71.63,1.04-.47,1.2-2.41,2.14-3,9.5-6.01,7.24,8.19,7.24,8.19-2.6,6.57-6.61,13.97-6.61,13.97.31,3.67,7.57,2.75,7.57,2.75,1.12-8.53,2.87-16.36,4.57-16.98,11.18,1.72,14.33,6.36,14.33,6.36-.23,6.63,2.27,9.19,2.82,9.58.06.04.84-.01.92,0,5.06.29,3.08-10.78,3.08-10.78.34-16.8,2.72-22.09,2.72-22.09,6.94-3.49-.15-5.24-.15-5.24Z"/>
    <path class="cls-1" d="m109.7,136.15s-10.39,4.67-6.75,15.13c0,0-1.96,5.63,2.03,13.74,0,0,6.11,10.22,14.56,5.67,0,0,4.95-2.81,6.01-18.17,0,0-2.6-19.59-15.85-16.38Zm6.83,31.18c-7.88,1.65-9.94-13.04-8.56-13.15,2.92.01,1.76-1.66,1.76-1.66-.76-1.58-1.76-2.01-1.76-2.01-2.46-7.01,3.06-9.72,3.06-9.72,6.46-4.68,7.92,10.89,7.75,11.39,3.57,11.04-1.43,15.52-2.25,15.15Z"/>
    <path class="cls-5" d="m180.12,127.65s-.79-8.43-5.49-11.16c0,0-2.53-2.53-6.62,8.52,0,0-2.31,4.08-7.91,15.52-.13.27-.49.32-.68.1-1.61-1.86-7.7-8.72-12.97-11.78,0,0-4.53-5.34-13.48,2.45,0,0-4.87,2.76-3.39,14.6,0,0,1.56,4.39,4.64,5.53,0,0,4.52.6,3.58-2.51,0,0-3.36-7.59-2.36-10.1,0,0,4.1-5.78,8.01,1.82,0,0,4.1,10.65-3.84,20.11-.33.39-.33.97.03,1.33.94.93,3.4,2.4,9.55,2.44.02,0,.05,0,.07,0,.53-.07,7.36-1.44,3.67-23.13,0-.05.05-.07.07-.03.68,1.41,2,7.67,6.79,12.93.67.74,1.07,1.08,2,1.58.93.5,1.74.78,2.59.93,1.06.19,3.84-1.07,4.62-2.07,1.25-1.59-2.29-5.62-.34-9.98,0,0,3.93-17.76,5.42-1.66.05.51.18,1.02.38,1.49,1.3,2.98,5.09,10.07,14.6,2,0,0-6.41-4.58-8.93-18.94Z"/>
    <path class="cls-5" d="m220.18,131.29c-1.26-6.55-10.72-7.23-12.39-7.43-.05,0-.05-.08,0-.1,11.46-4,.58-20.33.58-20.33-4.36-7.91-16.17-1.55-16.17-1.55-13.18,7.05-8.48,19.66-8.48,19.66,4.7,9.17,7.34-.8,7.34-.8-.52-3.98-.53-6.09-.47-7.13.04-.66.64-1.17,1.28-1.04,4.18.82,4.57,16.83,4.57,16.83-1.61,13.46,8.83,14.72,8.83,14.72,5.23-1.66,8.31-5.37,10.78-6.99,4.7-3.1,4.13-5.85,4.13-5.85Zm-17.74-12.17l-3.45-14.77c-.36.13-.12-.37,0,0,4.85-1.74,10.52,7.7,5.63,15.13-.55.84-1.86.6-2.18-.35Zm5.32,17.64c-.97.65-2.29.15-2.6-.97l-1.27-6.27c-.22-.79.44-1.3,1.25-1.44,3.01-.52,11.95,2.42,2.62,8.67Z"/>
    <path class="cls-4" d="m251.89,116.55c-9.02-1.07-10.74-5.97-10.74-5.97,11.31-10.39,5.84-16.04,5.84-16.04-5.7-15.16-18.34-9.25-19.45-8.57-12.58,7.44-14.48,12.5-14.48,12.5-.26,3.61,4.39,9.39,4.39,9.39,5.35-.03,1.83-3.55,1.83-3.55-4.85-6.73,4.7-10.17,4.7-10.17,6.5,3.1,3.56,15.21,3.56,15.21,0,12.99-2.71,17.66-.17,20.36.85.9,2.12,4.51,3.3,4.12,1.66-.56,6.01-1.57,6.16-4.12.19-3.15-1.04-7.37-1.04-7.37-2.29-15.44,4.8-2.87,4.8-2.87,1.53,9.02,9.45,5.53,9.45,5.53,9.48-4.13,1.83-8.46,1.83-8.46Zm-16.01-9.83c-.74.48-1.73,0-1.79-.88l-1-14.59c-.07-1.02,1.12-1.62,1.9-.95,3.67,3.16,10.1,10.4.9,16.42Z"/>
    <path class="cls-4" d="m263,93.91c-2.11-5.88,1.24-8.7,1.24-8.7,7.01-1.62,2.87,18.16,2.87,18.16-3.79,14.34,2.37,12.78,2.37,12.78,13.61-5.45,16.43-5.42,16.43-5.42,1.5.38,2.91.44,3.33-.34,2.18-4.09-.77-6.08-.77-6.08-12.84,3.67-12.01-.99-12.01-.99-.66-6.2.68-4.38.68-4.38,7.51,4.3,7.01.89,7.01.89.08-6.32-3.94-5.41-3.94-5.41-3.55,2.01-5.21,0-5.21,0-2.07-8.88,4.2-7.73,4.2-7.73,1.16.08,2.29,1.14,2.53.47.59-1.62.92-4.53.92-4.53.33-3.4-.21-2.97-.21-2.97-.42.03-1.49.42-2.34,1.1-.54.43-1.18.72-1.85.86-5.64,1.1-7.79-.05-8.88-.72-.51-.32-1.07-.56-1.67-.66-3.86-.64-7.43.94-8.99,2.25-1.1.92-1.66,2.34-1.55,3.77.29,3.64,2.39,7.17,4.3,7.78,3.33,1.07,1.53-.13,1.53-.13Z"/>
  </g>
  <g id="LOCO">
    <path class="cls-1" d="m183.45,190.86s-11.61,1.4-13.68.95c0,0,1.36-2.4,2.89-17.29,0,0,.05-1.55,1.02-2.24,0,0,3.79-2.47-.57-3.99,0,0-4.07-.16-4.28-.12-.42.08-1-.39-3.79.33,0,0-1.13.1-3.52,1.15,0,0-1.41,3.95,1.91,2.25,0,0,1.96-1.25,3.67-.62,0,0,4.6-1.38-6.58,29.6,0,0,14.47-4.08,22.64-4.16,0,0,2.33-3.53.28-5.88Z"/>
    <path class="cls-5" d="m196.31,159.65s-12.75,6.56-6.84,17.47c0,0-1.84,6.42,4.25,14.72,0,0,9.06,10.3,19.34,4.14,0,0,7.85-2.89,3.15-19.52,0,0-3.31-22.18-19.91-16.81Zm12.5,33.08c-9.9,2.91-14.3-12.83-12.55-13.15,3.74-.4,2.05-2.06,2.05-2.06-1.16-1.62-2.49-1.95-2.49-1.95-3.99-7.3,2.75-11.04,2.75-11.04,7.72-6.01,11.46,10.77,11.31,11.34,5.9,11.55.03,17.14-1.07,16.85Z"/>
    <path class="cls-5" d="m264.14,173.48s-15.99,13.26-18.74-15.51c0,0,3.08.09,7.66-2.05,0,0,18.01-10.78,5.05-16.66,0,0-14.93.11-21.35,15,0,0-18.32-1.33-19.03,10.46,0,0,6.03,9.37,13.38,5.96,0,0-9.08-8.73,2.45-9.97.73-.08,1.36.53,1.25,1.24-.27,1.79-.17,5.49,2.58,11.94,0,0,13.46,17.48,31.57,2.34,0,0-1.96-3.21-4.82-2.75Zm-9.19-29.58c2.88,6.97-9.05,10.04-9.05,10.04,4.85-14.98,9.05-10.04,9.05-10.04Z"/>
    <path class="cls-4" d="m272.42,123.81s-11.32,8.8-3.5,18.43c0,0-.63,6.65,6.89,13.68,0,0,10.8,8.45,19.77.5,0,0,6.61-4.73-.73-20.19,0,0-7.12-20.76-22.44-12.42Zm18.39,30.21c-9.2,4.69-16.42-9.97-14.76-10.6,3.6-1.08,1.64-2.4,1.64-2.4-1.44-1.38-2.81-1.46-2.81-1.46-5.27-6.44.67-11.36.67-11.36,6.47-7.33,13.25,8.47,13.2,9.06,7.93,10.27,3.2,16.84,2.06,16.76Z"/>
  </g>
</svg>